<svg version="1.1" viewBox="0.0 0.0 960.0 720.0" fill="none" stroke="none" stroke-linecap="square" stroke-miterlimit="10" xmlns:xlink="http://www.w3.org/1999/xlink" xmlns="http://www.w3.org/2000/svg"><clipPath id="p.0"><path d="m0 0l960.0 0l0 720.0l-960.0 0l0 -720.0z" clip-rule="nonzero"/></clipPath><g clip-path="url(#p.0)"><path fill="#000000" fill-opacity="0.0" d="m0 0l960.0 0l0 720.0l-960.0 0z" fill-rule="evenodd"/><path fill="#ead1dc" d="m253.70604 360.0l0 0c0 -128.76497 104.38463 -233.1496 233.14961 -233.1496l0 0c61.835083 0 121.137634 24.563911 164.86163 68.28794c43.72406 43.72403 68.287964 103.02655 68.287964 164.86166l0 0c0 128.76498 -104.38464 233.1496 -233.1496 233.1496l0 0c-128.76498 0 -233.14961 -104.38461 -233.14961 -233.1496z" fill-rule="evenodd"/><path fill="#000000" d="m385.62518 346.75186q-0.421875 0 -1.453125 -0.171875q-1.015625 -0.1875 -1.578125 -0.1875q-1.140625 0 -2.6875 0.078125l0.109375 2.78125q0 17.4375 -2.3125 25.390625q-1.546875 5.25 -5.421875 5.25q-4.078125 0 -8.078125 -2.953125q-4.4375 -3.28125 -4.4375 -7.53125q0 -2.875 2.375 -2.875q2.359375 0 2.359375 2.828125q0 1.953125 2.765625 3.875q2.65625 1.828125 5.015625 1.828125q1.921875 0 2.671875 -11.796875q0.359375 -5.578125 0.359375 -14.015625q0 -0.65625 -0.125 -2.53125l-1.421875 0.03125q-0.921875 0 -2.765625 -0.0625q-1.828125 -0.0625 -2.765625 -0.0625q-1.03125 0 -1.734375 -0.65625q-0.703125 -0.65625 -0.703125 -1.78125q0 -2.40625 3.25 -2.40625q0.796875 0 2.359375 0.078125q1.578125 0.0625 2.359375 0.0625q1.46875 0 4.40625 -0.171875q2.953125 -0.1875 4.421875 -0.1875q5.34375 0 5.34375 2.71875q0 0.9375 -0.625 1.671875q-0.6875 0.796875 -1.6875 0.796875zm18.0625 31.40625q-5.296875 0 -8.578125 -2.65625q-3.578125 -2.921875 -3.578125 -8.203125q0 -6.09375 2.953125 -10.21875q3.203125 -4.5 8.578125 -4.5q3.890625 0 6.34375 1.3125q3.03125 1.625 3.03125 4.96875q0 2.34375 -2.65625 4.265625q-1.171875 0.84375 -4.96875 2.625l-8.953125 4.25q1.3125 1.9375 3.265625 2.921875q1.96875 0.984375 4.5625 0.984375q1.625 0 3.796875 -0.609375q2.765625 -0.765625 3.5625 -2.015625q0.796875 -1.265625 1.71875 -1.265625q0.8125 0 1.453125 0.625q0.65625 0.625 0.65625 1.4375q0 2.609375 -4.203125 4.484375q-3.578125 1.59375 -6.984375 1.59375zm-0.625 -21.359375q-2.859375 0 -4.765625 2.21875q-1.890625 2.21875 -2.828125 6.671875l7.1875 -3.421875q4.25 -2.0625 6.046875 -3.59375q-2.015625 -1.875 -5.640625 -1.875zm33.953125 21.953125q-2.015625 0 -2.265625 -2.21875l-0.65625 -5.125q-0.328125 -2.75 -0.328125 -5.140625q0 -0.65625 0.078125 -2.21875q0.078125 -1.578125 0.078125 -2.234375q0 -5.0625 -1.875 -5.0625q-2.625 0 -5.015625 3.125q-2.15625 2.828125 -3.375 7.171875q-0.046875 0.90625 -0.203125 2.296875q-0.140625 1.171875 -0.140625 2.265625q0 0.703125 0.140625 2.109375q0.140625 1.40625 0.140625 2.109375q0 1.0625 -0.65625 1.71875q-0.640625 0.65625 -1.640625 0.65625q-1.03125 0 -1.671875 -0.65625q-0.625 -0.65625 -0.625 -1.71875q0 -0.703125 -0.15625 -2.109375q-0.15625 -1.40625 -0.15625 -2.109375q0 -2.40625 0.34375 -6.6875q0.34375 -4.28125 0.34375 -6.6875q0 -0.75 -0.09375 -2.21875q-0.078125 -1.484375 -0.078125 -2.234375q0 -1.015625 0.671875 -1.65625q0.671875 -0.640625 1.65625 -0.640625q2.15625 0 2.359375 3.046875l0.078125 2.734375q3.9375 -5.25 8.078125 -5.25q3.75 0 5.234375 3.3125q1.0 2.203125 1.09375 6.515625l0 2.359375l-0.015625 2.1875q0 1.9375 0.5 5.03125q0.5 3.078125 0.5 5.0q0 1.03125 -0.671875 1.671875q-0.65625 0.65625 -1.671875 0.65625zm25.125 0q-2.015625 0 -2.265625 -2.21875l-0.65625 -5.125q-0.328125 -2.75 -0.328125 -5.140625q0 -0.65625 0.078125 -2.21875q0.078125 -1.578125 0.078125 -2.234375q0 -5.0625 -1.875 -5.0625q-2.625 0 -5.015625 3.125q-2.15625 2.828125 -3.375 7.171875q-0.046875 0.90625 -0.203125 2.296875q-0.140625 1.171875 -0.140625 2.265625q0 0.703125 0.140625 2.109375q0.140625 1.40625 0.140625 2.109375q0 1.0625 -0.65625 1.71875q-0.640625 0.65625 -1.640625 0.65625q-1.03125 0 -1.671875 -0.65625q-0.625 -0.65625 -0.625 -1.71875q0 -0.703125 -0.15625 -2.109375q-0.15625 -1.40625 -0.15625 -2.109375q0 -2.40625 0.34375 -6.6875q0.34375 -4.28125 0.34375 -6.6875q0 -0.75 -0.09375 -2.21875q-0.078125 -1.484375 -0.078125 -2.234375q0 -1.015625 0.671875 -1.65625q0.671875 -0.640625 1.65625 -0.640625q2.15625 0 2.359375 3.046875l0.078125 2.734375q3.9375 -5.25 8.078125 -5.25q3.75 0 5.234375 3.3125q1.0 2.203125 1.09375 6.515625l0 2.359375l-0.015625 2.1875q0 1.9375 0.5 5.03125q0.5 3.078125 0.5 5.0q0 1.03125 -0.671875 1.671875q-0.65625 0.65625 -1.671875 0.65625zm11.625 -31.34375q-1.125 0 -1.953125 -0.796875q-0.8125 -0.796875 -0.8125 -1.921875q0 -1.125 0.8125 -1.921875q0.828125 -0.796875 1.953125 -0.796875q1.125 0 1.9375 0.796875q0.8125 0.796875 0.8125 1.921875q0 1.125 -0.8125 1.921875q-0.8125 0.796875 -1.9375 0.796875zm1.0625 19.03125q0 1.40625 0.078125 4.203125q0.078125 2.796875 0.078125 4.203125q0 1.03125 -0.640625 1.703125q-0.625 0.65625 -1.65625 0.65625q-1.0 0 -1.65625 -0.65625q-0.640625 -0.671875 -0.640625 -1.703125q0 -1.40625 -0.078125 -4.203125q-0.078125 -2.796875 -0.078125 -4.203125q0 -2.203125 0.234375 -5.5q0.234375 -3.296875 0.234375 -5.5q0 -1.046875 0.640625 -1.703125q0.640625 -0.65625 1.65625 -0.65625q1.0 0 1.640625 0.65625q0.65625 0.65625 0.65625 1.703125q0 2.203125 -0.234375 5.5q-0.234375 3.296875 -0.234375 5.5zm23.671875 -22.3125q-5.671875 0 -6.359375 7.875l-0.0625 1.453125q3.984375 -0.28125 5.15625 -0.28125q3.71875 0 3.71875 2.34375q0 1.703125 -1.828125 2.03125q-0.796875 0.140625 -1.859375 0.109375q-1.0625 -0.03125 -5.40625 0.3125l-0.1875 5.34375q0 1.453125 0.09375 4.359375q0.09375 2.90625 0.09375 4.34375q0 4.453125 -0.515625 6.9375q-0.390625 1.875 -2.171875 1.875q-0.96875 0 -1.65625 -0.625q-0.671875 -0.609375 -0.671875 -1.546875q0 -0.1875 0.046875 -0.46875q0.5 -3.0625 0.5 -6.640625l-0.078125 -6.40625l0 -6.796875q-2.921875 0.234375 -3.703125 0.234375q-2.359375 0 -2.359375 -2.265625q0 -2.328125 4.09375 -2.4375l2.25 -0.078125q0.078125 -1.3125 0.359375 -3.5625q0.609375 -5.203125 2.625 -7.65625q2.4375 -2.984375 7.609375 -2.984375q3.359375 0 3.359375 2.28125q0 2.25 -3.046875 2.25zm19.585938 34.03125q-5.296875 0 -8.578125 -2.65625q-3.578125 -2.921875 -3.578125 -8.203125q0 -6.09375 2.953125 -10.21875q3.203125 -4.5 8.578125 -4.5q3.890625 0 6.34375 1.3125q3.03125 1.625 3.03125 4.96875q0 2.34375 -2.65625 4.265625q-1.171875 0.84375 -4.96875 2.625l-8.953125 4.25q1.3125 1.9375 3.265625 2.921875q1.96875 0.984375 4.5625 0.984375q1.625 0 3.796875 -0.609375q2.765625 -0.765625 3.5625 -2.015625q0.796875 -1.265625 1.71875 -1.265625q0.8125 0 1.453125 0.625q0.65625 0.625 0.65625 1.4375q0 2.609375 -4.203125 4.484375q-3.578125 1.59375 -6.984375 1.59375zm-0.625 -21.359375q-2.859375 0 -4.765625 2.21875q-1.890625 2.21875 -2.828125 6.671875l7.1875 -3.421875q4.25 -2.0625 6.046875 -3.59375q-2.015625 -1.875 -5.640625 -1.875zm34.21875 2.953125q-0.171875 2.9375 -2.34375 2.9375q-2.015625 0 -2.015625 -2.328125q0 -0.4375 -0.078125 -1.640625l-0.0625 -1.96875q-3.703125 0.453125 -5.9375 2.09375q-2.078125 1.515625 -3.46875 4.59375l0.046875 12.84375q0 2.375 -2.3125 2.375q-2.0625 0 -2.0625 -2.375l0 -16.453125q0 -0.78125 0.046875 -2.328125q0.0625 -1.546875 0.0625 -2.3125q0 -2.375 2.0625 -2.375q2.296875 0 2.328125 3.890625q4.5 -4.328125 9.984375 -4.328125q1.890625 0 2.828125 1.4375q0.9375 1.421875 0.9375 4.296875q0 1.21875 -0.015625 1.640625zm45.203125 18.03125q-2.15625 0 -3.75 -5.53125q-0.609375 -2.109375 -1.515625 -7.390625q-2.390625 0.328125 -6.265625 1.171875l-6.234375 1.296875q-1.171875 3.0625 -4.0 8.96875q-0.75 1.328125 -2.046875 1.328125q-0.9375 0 -1.671875 -0.6875q-0.734375 -0.6875 -0.734375 -1.6875q0 -1.125 3.53125 -8.5625q-0.390625 -0.609375 -0.390625 -1.40625q0 -1.890625 2.296875 -2.4375q2.671875 -5.015625 6.75 -11.53125q5.546875 -8.875 6.90625 -8.875q1.859375 0 2.53125 2.578125l1.484375 7.875l3.484375 16.28125l1.34375 3.703125q0.671875 1.90625 0.671875 2.53125q0 1.015625 -0.734375 1.6875q-0.71875 0.6875 -1.65625 0.6875zm-8.265625 -26.796875l-6.703125 10.8125q2.828125 -0.734375 8.59375 -1.765625l-1.890625 -9.046875zm21.8125 -3.578125q-1.125 0 -1.953125 -0.796875q-0.8125 -0.796875 -0.8125 -1.921875q0 -1.125 0.8125 -1.921875q0.828125 -0.796875 1.953125 -0.796875q1.125 0 1.9375 0.796875q0.8125 0.796875 0.8125 1.921875q0 1.125 -0.8125 1.921875q-0.8125 0.796875 -1.9375 0.796875zm1.0625 19.03125q0 1.40625 0.078125 4.203125q0.078125 2.796875 0.078125 4.203125q0 1.03125 -0.640625 1.703125q-0.625 0.65625 -1.65625 0.65625q-1.0 0 -1.65625 -0.65625q-0.640625 -0.671875 -0.640625 -1.703125q0 -1.40625 -0.078125 -4.203125q-0.078125 -2.796875 -0.078125 -4.203125q0 -2.203125 0.234375 -5.5q0.234375 -3.296875 0.234375 -5.5q0 -1.046875 0.640625 -1.703125q0.640625 -0.65625 1.65625 -0.65625q1.0 0 1.640625 0.65625q0.65625 0.65625 0.65625 1.703125q0 2.203125 -0.234375 5.5q-0.234375 3.296875 -0.234375 5.5z" fill-rule="nonzero"/></g></svg>